/* XPM */
static char *cd47a42dab0947d1bc1f3b81b6550c24[] = {
/* columns rows colors chars-per-pixel */
"128 128 17 1 ",
"  c #019B7E",
". c #019B7F",
"X c #029B7F",
"o c #019C7E",
"O c #019C7F",
"+ c #019D7F",
"@ c #029C7E",
"# c #029C7F",
"$ c #029D7F",
"% c #009B80",
"& c #019B80",
"* c #029B80",
"= c #019C80",
"- c #019D80",
"; c #029C80",
": c #029D80",
"> c None",
/* pixels */
"o==========================================================>>>>>>>>>>===================*===>>>>>>>>>>>>>>>>>>>>>>>>>>>>>>>>>>>>",
"=o=oo==oo==oo=o==oo=o==oo=o==oo=o==oo=o==oo=o==oo=o==oo=o==>>>>>>>>>>o=oo=o==oo=o==oo=o=o==o=o*==>>>>>>>>>>>>>>>>>>>>>>>>>>>>>>>",
"o=o=o=o==o=o=o=o=o=o=o=o=o=o=o=o=o=o=o=o=o=o=o=o=o=o=o=o=o=>>>>>>>>>>=o==o=o=o=o=o=o=o=oo=o=o=o=o=o:>>>>>>>>>>>>>>>>>>>>>>>>>>>>",
"=o=o=o=oo=o=o=o=o=o=o=o=o=o=o=o=o=o=o=o=o=o=o=o=o=o=o=o=o=o>>>>>>>>>>o=oo=o=o=o=o=o=o=o==o=o=o=o=o=o==>>>>>>>>>>>>>>>>>>>>>>>>>>",
"o=o=o=o==o=o=o=o=o=o=o=o=o=o=o=o=o=o=o=o=o=o=o=o=o=o=o=o=o=>>>>>>>>>>oo==o=o=o=o=o=o=o=oo=o=o=o=o=o=o=o=:>>>>>>>>>>>>>>>>>>>>>>>",
"=o=o=o=oo=o=o=o=o=o=o=o=o=o=o=o=o=o=o=o=o=o=o=o=o=o=o=o=o=o>>>>>>>>>>==oo=o=o=o=o=o=o=o==o=o=o=o=o=o=o=oo=>>>>>>>>>>>>>>>>>>>>>>",
"==o=o=o==o=o=o=o=o=o=o=o=o=o=o=o=o=o=o=o=o=o=o=o=o=o=o=o=o=>>>>>>>>>>=o==o=o=o=o=o=o=o=oo=o=o=o=o=o=o=o=o=o=>>>>>>>>>>>>>>>>>>>>",
"=o=o=o=oo=o=o=o=o=o=o=o=o=o=o=o=o=o=o=o=o=o=o=o=o=o=o=o=o=o>>>>>>>>>>o=oo=o=o=o=o=o=o=o==o=o=o=o=o=o=o=o=o=oo#>>>>>>>>>>>>>>>>>>",
"==o==o=o=o=o=o=o=o=o=o=o=o=o=o=o=o=o=o=o=o=o=o=o=o=o=o=o=o=>>>>>>>>>>o=o=o=o=o=o=o=o=o=o=o=o=o=oo=o=o=o=o=o=o==>>>>>>>>>>>>>>>>>",
"=o=oo=o=o=o=o=o=o=o=o=o=o=o=o=o=o=o=o=o=o=o=o=o=o=o=o=o=o=o>>>>>>>>>>=o=o=o=o=o=o=o=o=o=o=o=o=o==o=o=o=o=o=o=oo=>>>>>>>>>>>>>>>>",
"o=o==o=o=o=o=o=o=o=o=o=o=o=o=o=o=o=o=o=o=o=o=o=o=o=o=o=o=o=>>>>>>>>>>==o=o=o=o=o=o=o=o=o=o=o=o=oo=o=o=o=o=o=o=o=o>>>>>>>>>>>>>>>",
"=o=oo=o=o=o=o=o=o=o=o=o=o=o=o=o=o=o=o=o=o=o=o=o=o=o=o=o=o=o>>>>>>>>>>oo=o=o=o=o=o=o=o=o=o=o=o=o==o=o=o=o=o=o=o=o=o:>>>>>>>>>>>>>",
"o==o=o=o=o=o=o=o=o=o=o=o=o=o=o=o=o=o=o=o=o=o=o=o=o=o=o=o=oo>>>>>>>>>>o=o=o=o=o=o=o=o=o=o=o=o=o=oo=o=o=o=o=o=o=o=o=o*>>>>>>>>>>>>",
"=oo=o=o=o=o=o=o=o=o=o=o=o=o=o=o=o=o=o=o=o=o=o=o=o=o=o=o=o==>>>>>>>>>>=o=o=o=o=o=o=o=o=o=o=o=o=o==o=o=o=o=o=o=o=o=o=o:>>>>>>>>>>>",
"=o=o=o=o=o=o=o=o=o=o=o=o=o=o=o=o=o=o=o=o=o=o=o=o=o=o=o=o=o=>>>>>>>>>>o=o=o=o=o=o=o=o=o=o=o=o=o=oo=o=o=o=o=o=o=o=o=o=o>>>>>>>>>>>",
"==o=o=o=o=o=o=o=o=o=o=o=o=o=o=o=o=o=o=o=o=o=o=o=o=o=o=o=o=o>>>>>>>>>>=o=o=o=o=o=o=o=o=o=o=o=o=o==o=o=o=o=o=o=o=o=o=o=o>>>>>>>>>>",
"=o=o=o=o=o=o=o=o=o=o=o=o=o=o=o=o=o=o=o=o=o=o=o=oo=o=o=o=o=o>>>>>>>>>>o=o=o=o=o=o=o=o=o=o=o=o=o=oo=o=o=o=o=o=o=o=o=o=o=o>>>>>>>>>",
"==o=o=o=o=o=o=o=o=o=o=o=o=o=o=o=o=o=o=o=o=o=o=o==o=o=o=o=o=>>>>>>>>>>=o=o=o=o=o=o=o=o=o=o=o=o=o==o=o=o=o=o=o=o=o=o=o=o=X>>>>>>>>",
":o=o=o=o=o=o=o=o=o=o=o=o=o=o=o=o=o=o=o=o=o=o=o=oo=o=o=o=o==>>>>>>>>>>o=o=o=o=o=o=o=o=o=o=o=o=o=oo=o=o=o=o=o=o=o=o=o=o=o=o>>>>>>>",
"+=o=o=o=o=o=o=o=o=o=o=o=o=o=o=o=o=o=o=o=o=o=o=o==o=o=o=o=oo>>>>>>>>>>=o=o=o=o=o=o=o=o=o=o=o=o=o==o=o=o=o=o=o=o=o=o=o=o=oo>>>>>>>",
"+=o==o=o=o=o=o=o=o=o=o=o=o=o=o=o=o=o=o=o=o=o=o=oo=o=o=o=o=o>>>>>>>>>>o=o=o=o=o=o=o=o=o=o=o=o=o=oo=o=o=o=o=o=o=o=o=o=o=o=o=>>>>>>",
"+o=oo=o=o=o=o=o=o=o=o=o=o=o=o=o=o=o=o=o=o=o=o=o==o=o=o=o=o=>>>>>>>>>>=o=o=o=o=o=o=o=o=o=o=o=o=o==o=o=o=o=o=o=o=o=o=o=o=o==>>>>>>",
"==o==o=o=o=o=o=o=o=o=o=o=o=o=o=o=o=o=o=o=o=o=o=oo=o=o=o=o=o>>>>>>>>>>o=o=o=o=o=o=o=o=o=o=o=o=o=oo=o=o=o=o=o=o=o=o=o=o=o=o==>>>>>",
"=o=oo=o=o=o=o=o=o=o=o=o=o=o=o=o=o=o=o=o=o=o=o=o==o=o=o=o=o=>>>>>>>>>>=o=o=o=o=o=o=o=o=o=o=o=o=o==o=o=o=o=o=o=o=o=o=o=o=o=oo:>>>>",
"=oo=o=o==o=o=o=o=o=o=o=o=o=o=o=o=o=o=o=oo=o=o=o=o=o=o=o=o=o>>>>>>>>>>o=o=o=o=o=o=o=o=o=o=o=o=o=oo=o=o=o=o=o=o=o=o=o=o=o=o=o=>>>>",
"===o=o=oo=o=o=o=o=o=o=o=o=o=o=o=o=o=o=o==o=o=o=o=o=o=o=o=o=>>>>>>>>>>=o=o=o=o=o=o=o=o=o=o=o=o=o==o=o=o=o=o=o=o=o=o=o=o=o=o=o>>>>",
"o=o=o=o==o=o=o=o=o=o=o=o=o=o=o=o=o=o=o=oo=o=o=o=o=o=o=o=o=o>>>>>>>>>>o=o=o=o=o=o=o=o=o=o=o=o=o=oo=o=o=o=o=o=o=o=o=o=o=o=o=o=o>>>",
"=o=o=o=oo=o=o=o=o=o=o=o=o=o=o=o=o=o=o=o==o=o=o=o=o=o=o=o=o=>>>>>>>>>>=o=o=o=o=o=o=o=o=o=o=o=o=o==o=o=o=o=o=o=o=o=o=o=o=o=o=o=>>>",
"o=o=o=o==o=o=o=o=o=o=o=o=o=o=o=o=o=oo=o=o=o=o=o=o=o=o=o=o=o>>>>>>>>>>==o=o=o=o=o=o=o=o=o=o=o=o=o=o=oo=o=o=o=o=o=o=o=o=o=o=o=o:>>",
"=o=o=o=oo=o=o=o=o=o=o=o=o=o=o=o=o=o==o=o=o=o=o=o=o=o=o=o=o=>>>>>>>>>>oo=o=o=o=o=o=o=o=o=o=o=o=o=o=o==o=o=o=o=o=o=o=o=o=o=o=o=o>>",
":oo=o=o==o=o=o=o=o=o=o=o=o=o=o===oo=o=o=o=o=o=o=o=o=o=o=o=o>>>>>>>>>>o=o=o=o=o=o=o=o=o=o=o=o=o=o===oo=o=o=o=o=o=o=o=o=o=o=o=o=>>",
":==o=o=oo=o=o=o=o=o=o=o=o=o==>>>>o=o=o=o=o=o=o=o=o=o=o=o=o=>>>>>>>>>>=o=o=o=o=o=o=o=o=o=o=o=o=*>>>>:oo=o=o=o=o=o=o=o=o=o=o=o=o:>",
":=o=o=o=o=o=o=o==o=o=o=o=oo>>>>>>>o=o=o=o=o=o=o=o=o=o=o=o=o>>>>>>>>>>o=o=o=o=o=o=o=o=o=o=o=oo:>>>>>>>=o=o=o=o=o=o=o=o=o=o=o=o=o>",
":o=o=o=o=o=o=o=oo=o=o=o=o=:>>>>>>>>o=o=o=o=o=o=o=o=o=o=o=o=>>>>>>>>>>=o=o=o=o=o=o=o=o=o=o=o==>>>>>>>>o=o=o=o=o=o=o=o=o=o=o=o=o=>",
":=o=o=o=o=o=o=o==o=o=o=oo=>>>>>>>>>=o=o=o=o=o=o=o=o=o=o=o=o>>>>>>>>>>==o=o=o=o=o=o=o=o=o=o=o:>>>>>>>>>o=o=o=o=o=o=o=o=o=o=o=o=o>",
"oo=o=o=o=o=o=o=oo=o=o=o==o>>>>>>>>>:=o=o=o=o=o=o=o=o=o=o=o=>>>>>>>>>>oo=o=o=o=o=o=o=o=o=o=o=>>>>>>>>>>=o=o=o=o=o=o=o=o=o=o=o=o=>",
"=oo=o=o=o=o=o=o==o=o=o=oo=>>>>>>>>>$o=o=o=o=o=o=o=o=o=o=o==>>>>>>>>>>o=o=o=o=o=o=o=o=o=o=o=o>>>>>>>>>>o=o=o=o=o=o=o=o=o=o=o=o=o#",
"o==o=o=o=o=o=o=oo=o=o=o==o>>>>>>>>>$=o=o=o=o=o=o=o=o=o=o=oo>>>>>>>>>>=o=o=o=o=o=o=o=o=o=o=o=>>>>>>>>>>=o=o=o=o=o=o=o=o=o=o=o=ooo",
"==o=o=o=o=o=o=o==o=o=o=oo=>>>>>>>>>+o=o=o=o=o=o=o=o=o=o=o=o>>>>>>>>>>o=o=o=o=o=o=o=o=o=o=o=o>>>>>>>>>>o=o=o=o=o=o=o=o=o=o=o=o==o",
":o=o=o=o=o=o=o=oo=o=o=o==o>>>>>>>>>+=o=o=o=o=o=o=o=o=o=o=o=>>>>>>>>>>=o=o=o=o=o=o=o=o=o=o=o=>>>>>>>>>>=o=o=o=o=o=o=o=o=o=o=o=o==",
":=o=o=o=o=o=o=o==o=o=o=o=o>>>>>>>>>$o=o=o=o=o=o=o=o=o=o=o=o>>>>>>>>>>o=o=o=o=o=o=o=o=o=o=o=o>>>>>>>>>>o=o=o=o=o=o=o=o=o=o=o=o=o=",
":o=o=o=o=o=o=o=oo=o=o=o=o=>>>>>>>>>$=o=o=o=o=o=o=o=o=o=o=o=>>>>>>>>>>=o=o=o=o=o=o=o=o=o=o=o=>>>>>>>>>>=o=o=o=o=o=o=o=o=o=o=o=oo=",
":oo=o=o=o=o=o=o==o=o=o=o=o>>>>>>>>>$o=o=o=o=o=o=o=o=o=o=o==>>>>>>>>>>o=o=o=o=o=o=o=o=o=o=o=o>>>>>>>>>>o=o=o=o=o=o=o=o=o=o=o=o===",
"+==o=o=o=o=o=o=oo=o=o=o=o=>>>>>>>>>$=o=o=o=o=o=o=o=o=o=o=oo>>>>>>>>>>=o=o=o=o=o=o=o=o=o=o=o=>>>>>>>>>>=o=o=o=o=o=o=o=o=o=o=o=o=o",
"+=o=o=o=o=o=o=o==o=o=o=o=o>>>>>>>>>:o=o=o=o=o=o=o=o=o=o=o=o>>>>>>>>>>o=o=o=o=o=o=o=o=o=o=o=o>>>>>>>>>>o=o=o=o=o=o=o=o=o=o=o=o=o=",
"+o=o=o=o=o=o=o=oo=o=o=o=o=>>>>>>>>>:=o=o=o=o=o=o=o=o=o=o=o=>>>>>>>>>>=o=o=o=o=o=o=o=o=o=o=o=>>>>>>>>>>=o=o=o=o=o=o=o=o=o=o=o=o=o",
"+=o=o=o=o=o=o=o==o=o=o=o=o>>>>>>>>>:o=o=o=o=o=o=o=o=o=o=o=o>>>>>>>>>>o=o=o=o=o=o=o=o=o=o=o=o>>>>>>>>>>o=o=o=o=o=o=o=o=o=o=o=o=o=",
"+o=o=o=o=o=o=o=oo=o=o=o=o=>>>>>>>>>:=o=o=o=o=o=o=o=o=o=o=o=>>>>>>>>>>=o=o=o=o=o=o=o=o=o=o=o=>>>>>>>>>>=o=o=o=o=o=o=o=o=o=o=o=o=o",
"+oo=o=o==o=o=o=o=o=o=o=o=o>>>>>>>>>:Xo=oo=o=o=o=o=o=o=o=o=o>>>>>>>>>>o=o=o=o=o=o=o=o=o=o=o=o>>>>>>>>>>=o=o=o=o=oo=o=o=o=o=o=o=o=",
"+==o=o=oo=o=o=o=o=o=o=o=o=>>>>>>>>>*o=o==o=o=o=o=o=o=o=o=o=>>>>>>>>>>=o=o=o=o=o=o=o=o=o=o=o=>>>>>>>>>>o=o=o=o=o==o=o=o=o=o=o=o=o",
"+=o=o=o==o=o=o=o=o=o=o=o=o>>>>>>>>>:=o=oo=o=o=o=o=o=o=o=o=o>>>>>>>>>>o=o=o=o=o=o=o=o=o=o=o=o>>>>>>>>>>=o=o=o=o=oo=o=o=o=o=o=o=o=",
"+o=o=o=oo=o=o=o=o=o=o=o=o=>>>>>>>>>#o=o==o=o=o=o=o=o=o=o=o=>>>>>>>>>>=o=o=o=o=o=o=o=o=o=o=o=>>>>>>>>>>o=o=o=o=o==o=o=o=o=o=o=o=o",
"o=o=o=o==o=o=o=o=o=o=o=o=o>>>>>>>>>X=o=oo=o=o=o=o=o=o=o=o=o>>>>>>>>>>==o=o=o=o=o=o=o=o=o=o=o>>>>>>>>>>=o=o=o=o=oo=o=o=o=o=o=o=o=",
"oo=o=o=oo=o=o=o=o=o=o=o=o=>>>>>>>>>=o=o==o=o=o=o=o=o=o=o=o=>>>>>>>>>>oo=o=o=o=o=o=o=o=o=o=o=>>>>>>>>>>o=o=o=o=o==o=o=o=o=o=o=o=o",
"ooo=o=o==o=o=o=o=o=o=o=o=o>>>>>>>>>X=o=oo=o=o=o=o=o=o=o=o=o>>>>>>>>>>o=o=o=o=o=o=o=o=o=o=o=o>>>>>>>>>>=o=o=o=o=oo=o=o=o=o=o=o=o=",
"o==o=o=oo=o=o=o=o=o=o=o=o=>>>>>>>>>*o=o==o=o=o=o=o=o=o=o=o=>>>>>>>>>>=o=o=o=o=o=o=o=o=o=o=o=>>>>>>>>>>o=o=o=o=o==o=o=o=o=o=o=o=o",
"o=o==o=o=o=o=o=o=o=o=o=o=o>>>>>>>>>Xo=o=o=o=o=o=o=o=o=o=o=o>>>>>>>>>>o=o=o=o=o=o=o=o=o=o=o=o>>>>>>>>>>=o=o=o=o=o=o=o=o=oo=o=o=o=",
"=o=oo=o=o=o=o=o=o=o=o=o=o=>>>>>>>>>X=o=o=o=o=o=o=o=o=o=o=o=>>>>>>>>>>=o=o=o=o=o=o=o=o=o=o=o=>>>>>>>>>>o=o=o=o=o=o=o=o=o==o=o=o=o",
"o=o==o=o=o=o=o=o=o=o=o=o=o>>>>>>>>>Xo=o=o=o=o=o=o=o=o=o=o=o>>>>>>>>>>==o=o=o=o=o=o=o=o=o=o=o>>>>>>>>>>=o=o=o=o=o=o=o=o=oo=o=o=o=",
"=o=oo=o=o=o=o=o=o=o=o=o=o=>>>>>>>>>X=o=o=o=o=o=o=o=o=o=o=o=>>>>>>>>>>oo=o=o=o=o=o=o=o=o=o=o=>>>>>>>>>>o=o=o=o=o=o=o=o=o==o=o=o=o",
"oo=o=o=o=o=o=o=o=o=o=o=o=o>>>>>>>>>Xo=o=o=o=o=o=o=o=o=o=o==>>>>>>>>>>o=o=o=o=o=o=o=o=o=o=o=o>>>>>>>>>>=o=o=o=o=o=o=o=o=o=o=oo=o=",
"o=o=o=o=o=o=o=o=o=o=o=o=o=>>>>>>>>>X=o=o=o=o=o=o=o=o=o=o=oo>>>>>>>>>>=o=o=o=o=o=o=o=o=o=o=o=>>>>>>>>>>o=o=o=o=o=o=o=o=o=o=o==o=o",
"=o=o=o=o=o=o=o=o=o=o=o=o=o>>>>>>>>>Xo=o=o=o=o=o=o=o=o=o=o=o>>>>>>>>>>o=o=o=o=o=o=o=o=o=o=o=o>>>>>>>>>>=o=o=o=o=o=o=o=o=o=o=o=oo=",
"o=o=o=o=o=o=o=o=o=o=o=o=o=>>>>>>>>>:=o=o=o=o=o=o=o=o=o=o=o=>>>>>>>>>>=o=o=o=o=o=o=o=o=o=o=o=>>>>>>>>>>o=o=o=o=o=o=o=o=o=o=o=o=o=",
"o=o=o=o=o=o=o=o=o=o=o=o=o=>>>>>>>>>*=o=o=o=o=o=o=o=o=o=o=o=>>>>>>>>>>o=o=o=o=o=o=o=o=o=o=o=o>>>>>>>>>>=o=o=o=o=o=o=o=o=o=o=o=o==",
"*o=o=o=o=o=o=o=o=o=o=o=o=o>>>>>>>>>:o=o=o=o=o=o=o=o=o=o=o=o>>>>>>>>>>=o=o=o=o=o=o=o=o=o=o=o=>>>>>>>>>>o=o=o=o=o=o=o=o=o=o=o=o=o=",
"*=o=o=o=o=o=o=o=o=o=o=o=o=>>>>>>>>>:=o=o=o=o=o=o=o=o=o=o=oo>>>>>>>>>>o=o=o=o=o=o=o=o=o=o=o=o>>>>>>>>>>=o=o=o=o=o=o=o=o=o=o=o=o==",
"*o=o=o=o=o=o=o=o=o=o=o=o=o>>>>>>>>>:o=o=o=o=o=o=o=o=o=o=o==>>>>>>>>>>=o=o=o=o=o=o=o=o=o=o=o=>>>>>>>>>>o=o=o=o=o=o=o=o=o=o=o=o=o=",
"*=o=o=o=o=o=o=o=o=o=o=o=o=>>>>>>>>>:=o=o=o=o=o=o=o=o=o=o=o=>>>>>>>>>>==o=o=o=o=o=o=o=o=o=o=o>>>>>>>>>>=o=o=o=o=o=o=o=o=o=o=o=o==",
"=o=o=o=o=o=o=o=o=o=o=o=o=o>>>>>>>>>*o=o=o=o=o=o=o=o=o=o=o=o>>>>>>>>>>oo=o=o=o=o=o=o=o=o=o=o=>>>>>>>>>>o=o=o=o=o=o=o=o=o=o=o=o=o=",
"o=o=o=o=o=o=o=o=o=o=o=o=o=>>>>>>>>>:=o=o=o=o=o=o=o=o=o=o=o=>>>>>>>>>>o=o=o=o=o=o=o=o=o=o=o=o>>>>>>>>>>=o=o=o=o=o=o=o=o=o=o=o=o==",
"oo=o=o=o=o=o=o=o=o=o=o=o=o>>>>>>>>>*o=o=o=o=o=o=o=o=o=o=o=o>>>>>>>>>>=o=o=o=o=o=o=o=o=o=o=o=>>>>>>>>>>o=o=o=o=o=o=o=o=o=o=o=o=o=",
"ooo=o=o=o=o=o=o=o=o=o=o=o=>>>>>>>>>#o=o==o=o=o=o=o=o=o=o=o=>>>>>>>>>>o=o=o=o=o=o=o=o=o=o=o=o>>>>>>>>>>=o=o=o=o=o=o=o=o=o=o=o=o==",
"X==o=o=o=o=o=o=o=o=o=o=o=o>>>>>>>>>#=o=oo=o=o=o=o=o=o=o=o=o>>>>>>>>>>=o=o=o=o=o=o=o=o=o=o=o=>>>>>>>>>>o=o=o=o=o=o=o=o=o=o=o=o=o=",
"X=o=o=o=o=o=o=o=o=o=o=o=o=>>>>>>>>>Xo=o==o=o=o=o=o=o=o=o=o=>>>>>>>>>>==o=o=o=o=o=o=o=o=o=o=o>>>>>>>>>>=o=o=o=o=o=o=o=o=o=o=o=o==",
"Xo=o=o=o=o=o=o=o=o=o=o=o=o>>>>>>>>>:=o=oo=o=o=o=o=o=o=o=o=o>>>>>>>>>>oo=o=o=o=o=o=o=o=o=o=o=>>>>>>>>>>o=o=o=o=o=o=o=o=o=o=o=o=o=",
"X=o=o=o=o=o=o=o=o=o=o=o=o=>>>>>>>>>#o=o==o=o=o=o=o=o=o=o=o=>>>>>>>>>>o=o=o=o=o=o=o=o=o=o=o=o>>>>>>>>>>=o=o=o=o=o=o=o=o=o=o=o=o==",
"=o=o=o=o=o=o=o=o=o=o=o=o=o>>>>>>>>>#=o=oo=o=o=o=o=o=o=o=o=o>>>>>>>>>>=o=o=o=o=o=o=o=o=o=o=o=>>>>>>>>>>o=o=o=o=o=o=o=o=o=o=o=o=o=",
"=oo=o=o=o=o=o=o=o=o=o=o=o=>>>>>>>>>#o=o==o=o=o=o=o=o=o=o=o=>>>>>>>>>>o=o=o=o=o=o=o=o=o=o=o=o>>>>>>>>>>=o=o=o=o=o=o=o=o=o=o=o=o==",
"===o=o=o=o=o=o=o=o=o=o=o=o>>>>>>>>>#=o=oo=o=o=o=o=o=o=o=o=o>>>>>>>>>>=o=o=o=o=o=o=o=o=o=o=o=>>>>>>>>>>o=o=o=o=o=o=o=o=o=o=o=o=o=",
"==o=o=o=o=o=o=o=o=o=o=o=o=>>>>>>>>>#o=o=o=o=o=o==o=o=o=o=o=>>>>>>>>>>o=o=o=o=o=o=o=o=o=o=o=o>>>>>>>>>>=o=o=o=o=o=o=o=o=o=o=o=o==",
"=o=o=o=o=o=o=o=o=o=o=o=o=o>>>>>>>>>:=o=o=o=o=o=oo=o=o=o=o=o>>>>>>>>>>=o=o=o=o=o=o=o=o=o=o=o=>>>>>>>>>>o=o=o=o=o=o=o=o=o=o=o=o=o=",
"o=o=o=o=o=o=o=o=o=o=o=o=o=>>>>>>>>>:o=o=o=o=o=o==o=o=o=o=o=>>>>>>>>>>o=o=o=o=o=o=o=o=o=o=o=o>>>>>>>>>>=o=o=o=o=o=o=o=o=o=o=o=o==",
"=o=o=o=o=o=o=o=o=o=o=o=o=o>>>>>>>>>:=o=o=o=o=o=oo=o=o=o=o=o>>>>>>>>>>=o=o=o=o=o=o=o=o=o=o=o=>>>>>>>>>>o=o=o=o=o=o=o=o=o=o=o=o=o=",
"=oo=o=o=o=o=o=o=o=o=o=o=o=>>>>>>>>>#o=o=o=o=o=o==o=o=o=o=oo>>>>>>>>>>o=o=o=o=o=o=o=o=o=o=o=o>>>>>>>>>>=o=o=o=o=o=o=o=o=o=o=o=o==",
"===o=o=o=o=o=o=o=o=o=o=o=o>>>>>>>>>#=o=o=o=o=o=oo=o=o=o=o==>>>>>>>>>>=o=o=o=o=o=o=o=o=o=o=o=>>>>>>>>>>o=o=o=o=o=o=o=o=o=o=o=o=o=",
"==o=o=o=o=o=o=o=o=o=o=o=o=>>>>>>>>>#o=o=o=o=o=o==o=o=o=o=o=>>>>>>>>>>o=o=o=o=o=o=o=o=o=o=o=o>>>>>>>>>>=o=o=o=o=o=o=o=o=o=o=o=o==",
"=o=o=o=o=o=o=o=o=o=o=o=o=o>>>>>>>>>#=o=o=o=o=o=oo=o=o=o=o=o>>>>>>>>>>=o=o=o=o=o=o=o=o=o=o=o=>>>>>>>>>>o=o=o=o=o=o=o=o=o=o=o=o=o=",
"==o=o=o=o=o=o=o=o=o=o=o=o=>>>>>>>>>*o=o=o=o=o=o==o=o=o=oo=o>>>>>>>>>>o=o=o=o=o=o=o=o=o=o=o=o>>>>>>>>>>=o=o=o=o=o=o=o=o=o=o=o=o==",
"=o=o=o=o=o=o=o=o=o=o=o=o=o>>>>>>>>>*=o=o=o=o=o=oo=o=o=o==o=>>>>>>>>>>=o=o=o=o=o=o=o=o=o=o=o=>>>>>>>>>>o=o=o=o=o=o=o=o=o=o=o=o=o=",
"o=o=o=o=o=o=o=o=o=o=o=o=o=>>>>>>>>>*o=o=o=o=o=o==o=o=o=oo==>>>>>>>>>>o=o=o=o=o=o=o=o=o=o=o=o>>>>>>>>>>=o=o=o=o=o=o=o=o=o=o=o=o==",
"=o=o=o=o=o=o=o=o=o=o=o=o=o>>>>>>>>>#=o=o=o=o=o=oo=o=o=o==oo>>>>>>>>>>=o=o=o=o=o=o=o=o=o=o=o=>>>>>>>>>>o=o=o=o=o=o=o=o=o=o=o=o=o=",
"o=o=o=o=o=o=o=o=o=o=o=o=o=>>>>>>>>>#o=o=o=o=o=o==o=o=o=oo=o>>>>>>>>>>==o=o=o=o=o=o=o=o=o=o=o>>>>>>>>>>=o=o=o=o=o=o=o=o=o=o=o=o==",
"=o=o=o=o=o=o=o=o=o=o=o=o=o>>>>>>>>>#=o=o=o=o=o=oo=o=o=o==o=>>>>>>>>>>oo=o=o=o=o=o=o=o=o=o=o=>>>>>>>>>>o=o=o=o=o=o=o=o=o=o=o=o=o=",
"==o=o=o=o=o=o=o=o=o=o=o=o=>>>>>>>>>:o=o=o=o=o=o==o=o=o=o=oo>>>>>>>>>>o=o=o=o=o=o=o=o=o=o=o=o>>>>>>>>>>=o=o=o=o=o=o=o=o=o=o=o=o==",
"=o=o=o=o=o=o=o=o=o=o=o=o=o>>>>>>>>>*=o=o=o=o=o=oo=o=o=o=o=o:>>>>>>>>:=o=o=o=o=o=o=o=o=o=o=o=>>>>>>>>>>o=o=o=o=o=o=o=o=o=o=o=o=o=",
"=o=o=o=o=o=o=o=o=o=o=o=o=o>>>>>>>>>#o=o=o=o=o=o=o=o=o=o=o=o=>>>>>>>>==o=o=o=o=o=o=o=o=o=o=o=>>>>>>>>>>=o=o=o=o=o=o=o=o=o=o=o=o==",
"o=o=o=o=o=o=o=o=o=o=o=o=o=>>>>>>>>>#=o=o=o=o=o=o=o=o=o=o=o=o=>>>>>>=oo=o=o=o=o=o=o=o=o=o=o=o>>>>>>>>>>o=o=o=o=o=o=o=o=o=o=o=o=o=",
"=o=o=o=o=o=o=o=o=o=o=o=o=o>>>>>>>>>#o=o=o=o=o=o=o=o=o=o=o=o=o=:>>:===oo=o=o=o=o=o=o=o=o=o=o=>>>>>>>>>>=o=o=o=o=o=o=o=o=o=o=o=o==",
"o=o=o=o=o=o=o=o=o=o=o=o=o=>>>>>>>>>#=o=o=o=o=o=o=o=o=o=o=o=o=oo==oo=o==o=o=o=o=o=o=o=o=o=o=o>>>>>>>>>>o=o=o=o=o=o=o=o=o=o=o=o=o=",
"=o=o=o=o=o=o=o=o=o=o=o=o=o>>>>>>>>>*o=o=o=o=o=o=o=o=o=o=o=o=o=o=o=o=o=o=o=o=o=o=o=o=o=o=o=o=>>>>>>>>>>=o=o=o=o=o=o=o=o=o=o=o=o==",
"o=o=o=o=o=o=o=o=o=o=o=o=o=>>>>>>>>>:=o=o=o=o=o=o=o=o=o=o=o=o=o=o=o=o=o=o=o=o=o=o=o=o=o=o=o=o>>>>>>>>>>o=o=o=o=o=o=o=o=o=o=o=o=o=",
"=o=o=o=o=o=o=o=o=o=o=o=o=o>>>>>>>>>:o=o=o=o=o=o=o=o=o=o=o=o=o=o=o=o=o=o=o=o=o=o=o=o=o=o=o=o=>>>>>>>>>>=o=o=o=o=o=o=o=o=o=o=o=o==",
"o=o=o=o=o=o=o=o=o=o=o=o=o=>>>>>>>>>X=o=o=o=o=o=o=o=o=o=o=o=o=o=o=o=o=o=o=o=o=o=o=o=o=o=o=o=o>>>>>>>>>>o=o=o=o=o=o=o=o=o=o=o=o=o=",
"=o=o=o=o=o=o=o=o=o=o=o=o=o>>>>>>>>>Xo=o=o=o=o=o=o=o=o=o=o=o=o=o=o=o=o=o=o=o=o=o=o=o=o=o=o=o=>>>>>>>>>>=o=o=o=o=o=o=o=o=o=o=o=o==",
">=o=o=o=o=o=o=o=o=o=o=o=o=>>>>>>>>>X=o=o=o=o=o=o=o=o=o=o=o=o=o=o=o=o=o=o=o=o=o=o=o=o=o=o=o=o>>>>>>>>>>o=o=o=o=o=o=o=o=o=o=o=o=o=",
">==o=o=o=o=o=o=o=o=o=o=o=o>>>>>>>>>:o=o=o=o=o=o=o=o=o=o=o=o=o=o=o=o=o=o=o=o=o=o=o=o=o=o=o=o=>>>>>>>>>>=o=o=o=o=o=o=o=o=o=o=o=o==",
">=o=o=o=o=o=o=o=o=o=o=o=o=>>>>>>>>>*=o=o=o=o=o=o=o=o=o=o=o=o=o=o=o=o=o=o=o=o=o=o=o=o=o=o=o=o>>>>>>>>>>o=o=o=o=o=o=o=o=o=o=o=o=o=",
">==o=o=o=o=o=o=o=o=o=o=o=o>>>>>>>>>:o=o=o=o=o=o=o=o=o=o=o=o=o=o=o=o=o=o=o=o=o=o=o=o=o=o=o=o=>>>>>>>>>>=o=o=o=o=o=o=o=o=o=o=o=o==",
">>o=o=o=o=o=o=o=o=o=o=o=o=>>>>>>>>>#=o=o=o=o=o=o=o=o=o=o=o=o=o=o=o=o=o=o=o=o=o=o=o=o=o=o=o=o>>>>>>>>>>o=o=o=o=o=o=o=o=o=o=o=o=o=",
">>oo=o=o=o=o=o=o=o=o=o=o=o>>>>>>>>>#o=o=o=o=o=o=o=o=o=o=o=o=o=o=o=o=o=o=o=o=o=o=o=o=o=o=o=o=>>>>>>>>>>=o=o=o=o=o=o=o=o=o=o=o=o==",
">>==o=o=o=o=o=o=o=o=o=o=o=>>>>>>>>>#=o=o=o=o=o=o=o=o=o=o=o=o=o=o=o=o=o=o=o=o=o=o=o=o=o=o=o=o>>>>>>>>>>o=o=o=o=o=o=o=o=o=o=o=o=o=",
">>>o=o=oo=o=o=o==o=o=o=o=o>>>>>>>>>:o=o=o=o=o=o=o=o=o=o=o=o=o=o=o=o=o=o=o=o=o=o=o=o=o=o=o=o=>>>>>>>>>>o=o=o=o=o==o=o=o=o=o=o=o==",
">>>=o=o==o=o=o=oo=o=o=o=o=>>>>>>>>>:=o=o=o=o=o=o=o=o=o=o=o=o=o=o=o=o=o=o=o=o=o=o=o=o=o=o=o=o>>>>>>>>>>=o=o=o=o=oo=o=o=o=o=o=o=o=",
">>>>===oo=o=o=o==o=o=o=o=o>>>>>>>>>:o=o=o=o=o=o=o=o=o=o=o=o=o=o=o=o=o=o=o=o=o=o=o=o=o=o=o=o=>>>>>>>>>>o=o=o=o=o==o=o=o=o=o=o=o==",
">>>>*oo==o=o=o=oo=o=o=o=o=>>>>>>>>>==o=o=o=o=o=o=o=o=o=o=o=o=o=o=o=o=o=o=o=o=o=o=o=o=o=o=o=o>>>>>>>>>>=o=o=o=o=oo=o=o=o=o=o=o=o=",
">>>>>*ooo=o=o=o==o=o=o=o=o>>>>>>>>>oo=o=o=o=o=o=o=o=o=o=o=o=o=o=o=o=o=o=o=o=o=o=o=o=o=o=o=o=>>>>>>>>>>o=o=o=o=o==o=o=o=o=o=o=o==",
">>>>>>===o=o=o=oo=o=o=o=o=>>>>>>>>>==o=o=o=o=o=o=o=o=o=o=o=o=o=o=o=o=o=o=o=o=o=o=o=o=o=o=o=o>>>>>>>>>>=o=o=o=o=oo=o=o=o=o=o=o=o=",
">>>>>>>=o=o=o=o==o=o=o=o=o>>>>>>>>>oo=o=o=o=o=o=o=o=o=o=o=o=o=o=o=o=o=o=o=o=o=o=o=o=o=o=o=o=>>>>>>>>>>o=o=o=o=o==o=o=o=o=o=o=o==",
">>>>>>>>=o=o=o=oo=o=o=o=o=>>>>>>>>>*=o=o=o=o=o=o=o=o=o=o=o=o=o=o=o=o=o=o=o=o=o=o=o=o=o=o=o=o>>>>>>>>>>=o=o=o=o=oo=o=o=o=o=o=o=o=",
">>>>>>>>>o==o=o==o=o=o=o=o>>>>>>>>>*o=o=o=o=o=o=o=o=o=o=o=o=o=o=o=o=o=o=o=o=o=o=o=o=o=o=o=o=>>>>>>>>>>o=o=o=o=o=o=o=o=o==o=o=o==",
">>>>>>>>>>=o=o=oo=o=o=o=o=>>>>>>>>>*=o=o=o=o=o=o=o=o=o=o=o=o=o=o=o=o=o=o=o=o=o=o=o=o=o=o=o=o>>>>>>>>>>=o=o=o=o=o=o=o=o=oo=o=o=o=",
">>>>>>>>>>>=o=o==o=o=o=o=o>>>>>>>>>*o=o=o=o=o=o=o=o=o=o=o=o=o=o=o=o=o=o=o=o=o=o=o=o=o=o=o=o=>>>>>>>>>>o=o=o=o=o=o=o=o=o==o=o=o==",
">>>>>>>>>>>>=o=oo=o=o=o=o=>>>>>>>>>>=o=o=o=o=o=o=o=o=o=o=o=o=o=o=o=o=o=o=o=o=o=o=o=o=o=o=o=o>>>>>>>>>>=o=o=o=o=o=o=o=o=oo=o=o=o=",
">>>>>>>>>>>>>>=o=o=o=o=o=o>>>>>>>>>>o=o=o=o=o=o=o=o=o=o=o=o=o=o=o=o=o=o=o=o=o=o=o=o=o=o=o=o=>>>>>>>>>>o=o=o=o=o=o=o=o=o=o=o==o==",
">>>>>>>>>>>>>>>>=oo=o=o=o=>>>>>>>>>>=o=o=o=o=o=o=o=o=o=o=o=o=o=o=o=o=o=o=o=o=o=o=o=o=o=o=o=o>>>>>>>>>>=o=o=o=o=o=o=o=o=o=o=oo=o=",
">>>>>>>>>>>>>>>>>>>==oo==o>>>>>>>>>>o=o==oo=o=o=o=o=o=o=o=o=o=o=o=o=o=o=o=o=o=o=o=o=o=o=o=o=>>>>>>>>>>o=o=o=o=o=o=o=o=o=o=o=o===",
">>>>>>>>>>>>>>>>>>>>>>=o==>>>>>>>>>>=======o=o=o=o=o=o=o=o=o=o=o=o=o=o=o=o=o=o=o=o=o=o=o=o=o>>>>>>>>>>=o=o=o=o=o=o=o=o=o=o=o=o=o"
};
