/* XPM */
static char *d6aa5a2de2234a9fdd425ecc037381aa[] = {
/* columns rows colors chars-per-pixel */
"32 32 13 1 ",
"  c #029B7F",
". c #019C7E",
"X c #019C7F",
"o c #019D7F",
"O c #029C7F",
"+ c #029D7F",
"@ c #019B80",
"# c #029B80",
"$ c #019C80",
"% c #019D80",
"& c #029C80",
"* c #029D80",
"= c None",
/* pixels */
"$XXXXXXXXXXXXX$==$XXX$$*========",
"$XXXXXXXXXXXXX$==$XXXXXXXXX=====",
"$XXXXXXXXXXXXX$==XXXXXXXXXXX====",
"$XXXXXXXXXXXXXX==XXXXXXXXXXX$===",
"$XXXXXXXXXXXXXX==XXXXXXXXXXXX+==",
"@XXXXXXXXXXXXXX==$XXXXXXXXXXXX*=",
"@XXXXXXXXXXXXX$==XXXXXXXXXXXXXX=",
"@XXXXXXX$XXXXX$==XXXXXX$XXXXXXX=",
"@XXXXX$==XXXXX$==XXXXXX==$XXXXX$",
"@XXXXXO==XXXXX$==$XXXXX==XXXXXX$",
"$XXXXX#==XXXXX$==$XXXXX==OXXXXX$",
"$XXXXX#==XXXXXX==$XXXXX==*XXXXX$",
"$XXXXX#==XXXXXX==$XXXXX==*XXXXX$",
"$XXXXX@==XXXXXX==$XXXXX==*XXXXX$",
"$XXXXXX==XXXXXX==XXXXXX==#XXXXXX",
"$XXXXXX==XXXXX@==$XXXXX==#XXXXXX",
"$XXXXXO==XXXXX@==$XXXXX==*XXXXX$",
"@XXXX *==XXXXX@==$XXXXX==OXXXXX$",
"$XXXXX ==XXXXXX==$XXXXX==OXXXXX$",
"$XXXXX*==XXXXXX==XXXXXX==OXXXXXX",
"$XXXXX*==XXXXXX==$XXXXX==*XXXXXX",
"XXXXXX*==XXXXXX==$XXXXX==OXXXXXX",
"$XXXXXO==XXXXXX==XXXXXX==*XXXXXX",
"$XXXXX*==XXXXXX==$XXXXX== XXXXXX",
"$XXXXXO==XXXXXX*OXXXXXX== XXXXXX",
"$XXXXXO==XXXXXXXXXXXXXX== XXXXXX",
"$XXXXXO==XXXXXXXXXXXXXX==  XXXXX",
"$XXXXXO==XXXXXXXXXXXXXX==*XXXXXX",
"=XXXXX+==XXXXXXXXXXXXXX==*XXXXXX",
"==XXXX+==XXXXXXXXXXXXXX==$XXXXXX",
"===$XX*==XXXXXXXXXXXXXX==*XXXXXX",
"====O$*==XXXXXXXXXXXXXX== XXXXXX"
};
