/* XPM */
static char *_b530f2caca24f6a86e3deb51c0a6a7b[] = {
/* columns rows colors chars-per-pixel */
"64 64 15 1 ",
"  c #019B7E",
". c #019B7F",
"X c #029B7F",
"o c #019C7E",
"O c #019C7F",
"+ c #019D7F",
"@ c #029C7F",
"# c #029D7F",
"$ c #019B80",
"% c #029B80",
"& c #019C80",
"* c #019D80",
"= c #029C80",
"- c #029D80",
"; c None",
/* pixels */
"&&&&&&&&&&&&&&&&&&&&&&&&&&&&&@;;;;=OOOOOOO&&&&=;;;;;;;;;;;;;;;;;",
"OOOOOOOOOOOOOOOOOOOOOOOOOOOOO@;;;;OOOOOOOOOOOOOOO&=;;;;;;;;;;;;;",
"OOOOOOOOOOOOOOOOOOOOOOOOOOOOO=;;;;&OOOOOOOOOOOOOOOO&@;;;;;;;;;;;",
"OOOOOOOOOOOOOOOOOOOOOOOOOOOOO=;;;;&OOOOOOOOOOOOOOOOOO&;;;;;;;;;;",
"OOOOOOOOOOOOOOOOOOOOOOOOOOOOO=;;;;&OOOOOOOOOOOOOOOOOOOO&;;;;;;;;",
"$OOOOOOOOOOOOOOOOOOOOOOOOOOOO=;;;;OOOOOOOOOOOOOOOOOOOOOOO;;;;;;;",
"$OOOOOOOOOOOOOOOOOOOOOOOOOOOO@;;;;&OOOOOOOOOOOOOOOOOOOOOOO;;;;;;",
"$OOOOOOOOOOOOOOOOOOOOOOOOOOOO@;;;;OOOOOOOOOOOOOOOOOOOOOOOO&;;;;;",
"XOOOOOOOOOOOOOOOOOOOOOOOOOOOO@;;;;OOOOOOOOOOOOOOOOOOOOOOOOO&;;;;",
"OOOOOOOOOOOOOOOOOOOOOOOOOOOOO@;;;;OOOOOOOOOOOOOOOOOOOOOOOOOO;;;;",
"OOOOOOOOOOOOOOOOOOOOOOOOOOOOO@;;;;&OOOOOOOOOOOOOOOOOOOOOOOOOO;;;",
"OOOOOOOOOOOOOOOOOOOOOOOOOOOOO=;;;;OOOOOOOOOOOOOOOOOOOOOOOOOOO@;;",
"OOOOOOOOOOOOOOOOOOOOOOOOOOOOO=;;;;&OOOOOOOOOOOOOOOOOOOOOOOOOOO;;",
"$OOOOOOOOOOOOOOOOOOOOOOOOOOOOX;;;;&OOOOOOOOOOOOOOOOOOOOOOOOOOO@;",
"$OOOOOOOOOOOOOOOOOOOOOOOOOOOOX;;;;&OOOOOOOOOOOOOOOOOOOOOOOOOOOO;",
"$OOOOOOOOOOOOO$;&OOOOOOOOOOOOX;;;;&OOOOOOOOOOOOO;&OOOOOOOOOOOOO;",
"$OOOOOOOOOOOO;;;;&OOOOOOOOOOOX;;;;OOOOOOOOOOOO=;;;@OOOOOOOOOOOO;",
"$OOOOOOOOOOOO;;;;;OOOOOOOOOOO=;;;;OOOOOOOOOOOO;;;;;OOOOOOOOOOOO=",
"OOOOOOOOOOOOO;;;;;OOOOOOOOOOO=;;;;OOOOOOOOOOOO;;;;;OOOOOOOOOOOO&",
"OOOOOOOOOOOOO;;;;;OOOOOOOOOOO=;;;;&OOOOOOOOOOO;;;;;OOOOOOOOOOOO&",
"OOOOOOOOOOOOO;;;;;OOOOOOOOOOO=;;;;&OOOOOOOOOOO;;;;;OOOOOOOOOOOO&",
"OOOOOOOOOOOOO;;;;;OOOOOOOOOOO=;;;;&OOOOOOOOOOO;;;;;OOOOOOOOOOOO&",
"&OOOOOOOOOOOO;;;;;OOOOOOOOOOO@;;;;&OOOOOOOOOOO;;;;;OOOOOOOOOOOO&",
"&OOOOOOOOOOOO;;;;;OOOOOOOOOOO@;;;;&OOOOOOOOOOO;;;;;OOOOOOOOOOOO&",
"&OOOOOOOOOOOO;;;;;OOOOOOOOOOO@;;;;&OOOOOOOOOOO;;;;;OOOOOOOOOOOO&",
"&OOOOOOOOOOOO;;;;;OOOOOOOOOOO@;;;;&OOOOOOOOOOO;;;;;OOOOOOOOOOOO&",
"&OOOOOOOOOOOO;;;;;OOOOOOOOOOO%;;;;OOOOOOOOOOOO;;;;;OOOOOOOOOOOO&",
"XOOOOOOOOOOOO;;;;;OOOOOOOOOOO@;;;;OOOOOOOOOOOO;;;;;OOOOOOOOOOOO&",
"&OOOOOOOOOOOO;;;;;OOOOOOOOOOO$;;;;&OOOOOOOOOOO;;;;;OOOOOOOOOOOO&",
"OOOOOOOOOOOOO;;;;;OOOOOOOOOOO$;;;;&OOOOOOOOOOO;;;;;OOOOOOOOOOOO&",
"&OOOOOOOOOOOO;;;;;OOOOOOOOOOO%;;;;&OOOOOOOOOOO;;;;;OOOOOOOOOOOO&",
"&OOOOOOOOOOOO;;;;;OOOOOOOOOOO$;;;;&OOOOOOOOOOO;;;;;OOOOOOOOOOOO&",
"&OOOOOOOOOOOO;;;;;OOOOOOOOOOO=;;;;&OOOOOOOOOOO;;;;;OOOOOOOOOOOO&",
"&OOOOOOOOOOOO;;;;;OOOOOOOOOOO@;;;;OOOOOOOOOOOO;;;;;OOOOOOOOOOOO&",
"&OOOOOOOOOOOO;;;;;OOOOOOOOOOO@;;;;OOOOOOOOOOOO;;;;;OOOOOOOOOOOO&",
"OOOOOOOOOOOOO;;;;;OOOOOOOOOOO@;;;;OOOOOOOOOOOO;;;;;OOOOOOOOOOOO&",
"OOOOOOOOOOOOO;;;;;OOOOOOOOOOO-;;;;OOOOOOOOOOOO;;;;;OOOOOOOOOOOO&",
"OOOOOOOOOOOOO;;;;;OOOOOOOOOOO@;;;;OOOOOOOOOOOO;;;;;OOOOOOOOOOOO&",
"OOOOOOOOOOOOO;;;;;OOOOOOOOOOO-;;;;&OOOOOOOOOOO;;;;;OOOOOOOOOOOO&",
"&OOOOOOOOOOOO;;;;;OOOOOOOOOOO-;;;;&OOOOOOOOOOO;;;;;OOOOOOOOOOOO&",
"&OOOOOOOOOOOO;;;;;OOOOOOOOOOO@;;;;&OOOOOOOOOOO;;;;;OOOOOOOOOOOO&",
"&OOOOOOOOOOOO;;;;;OOOOOOOOOOO@;;;;&OOOOOOOOOOO;;;;;OOOOOOOOOOOO&",
"OOOOOOOOOOOOO;;;;;OOOOOOOOOOO@;;;;&OOOOOOOOOOO;;;;;OOOOOOOOOOOO&",
"OOOOOOOOOOOOO;;;;;OOOOOOOOOOO@;;;;OOOOOOOOOOOO;;;;;OOOOOOOOOOOO&",
"OOOOOOOOOOOOO;;;;;OOOOOOOOOOO@;;;;OOOOOOOOOOOO;;;;;OOOOOOOOOOOO&",
"XOOOOOOOOOOOO;;;;;OOOOOOOOOOO@;;;;OOOOOOOOOOOO;;;;;OOOOOOOOOOOO&",
"OOOOOOOOOOOOO;;;;;OOOOOOOOOOO@;;;;OOOOOOOOOOOO;;;;;OOOOOOOOOOOO&",
"OOOOOOOOOOOOO;;;;;OOOOOOOOOOOO;;;;OOOOOOOOOOOO;;;;;OOOOOOOOOOOO&",
"OOOOOOOOOOOOO;;;;;OOOOOOOOOOO&;;;;OOOOOOOOOOOO;;;;;OOOOOOOOOOOO&",
"OOOOOOOOOOOOO;;;;;OOOOOOOOOOOOOOOOOOOOOOOOOOOO;;;;;OOOOOOOOOOOO&",
"OOOOOOOOOOOOO;;;;;OOOOOOOOOOOOOOOOOOOOOOOOOOOO;;;;;OOOOOOOOOOOO&",
"OOOOOOOOOOOOO;;;;;OOOOOOOOOOOOOOOOOOOOOOOOOOOO;;;;;OOOOOOOOOOOO&",
"OOOOOOOOOOOOO;;;;;OOOOOOOOOOOOOOOOOOOOOOOOOOOO;;;;;OOOOOOOOOOOO&",
"OOOOOOOOOOOOO;;;;;OOOOOOOOOOOOOOOOOOOOOOOOOOOO;;;;;OOOOOOOOOOOO&",
";OOOOOOOOOOOO;;;;;OOOOOOOOOOOOOOOOOOOOOOOOOOOO;;;;;OOOOOOOOOOOO&",
";&OOOOOOOOOOO;;;;;OOOOOOOOOOOOOOOOOOOOOOOOOOOO;;;;;OOOOOOOOOOOO&",
";;OOOOOOOOOOO;;;;;OOOOOOOOOOOOOOOOOOOOOOOOOOOO;;;;;OOOOOOOOOOOO&",
";;OOOOOOOOOOO;;;;;OOOOOOOOOOOOOOOOOOOOOOOOOOOO;;;;;OOOOOOOOOOOO&",
";;;&OOOOOOOOO;;;;;OOOOOOOOOOOOOOOOOOOOOOOOOOOO;;;;;OOOOOOOOOOOO&",
";;;;OOOOOOOOO;;;;;OOOOOOOOOOOOOOOOOOOOOOOOOOOO;;;;;OOOOOOOOOOOO&",
";;;;;OOOOOOOO;;;;;OOOOOOOOOOOOOOOOOOOOOOOOOOOO;;;;;OOOOOOOOOOOO&",
";;;;;;OOOOOOO;;;;;OOOOOOOOOOOOOOOOOOOOOOOOOOOO;;;;;OOOOOOOOOOOO&",
";;;;;;;;&OOOO;;;;;OOOOOOOOOOOOOOOOOOOOOOOOOOOO;;;;;OOOOOOOOOOOO&",
";;;;;;;;;;=&&;;;;;OOOOOOOOOOOOOOOOOOOOOOOOOOOO;;;;;OOOOOOOOOOOOO"
};
